# xmcd CD database file
#
# Track frame offsets:
#	180
#	770
#	12366
#	28074
#	42641
#	54236
#	65100
#	82508
#	96994
#	111474
#	132131
#	149223
#	164522
#	176122
#	190384
#	201912
#	218941
#	233456
#	250096
#	266998
#	284679
#	296935
#	314612
#
# Disc length: 4415 seconds
#
# Revision: 1
# Processed by: cddbd v1.5.2PL0 Copyright (c) Steve Scherf et al.
# Submitted via: CDex 1.79
#
DISCID=68113d17
DTITLE=Amy Winehouse - The Soul Of Amy Winehouse (Unplugged And Electrified)
DYEAR=2007
DGENRE=Soul
TTITLE0=Intro
TTITLE1=Back To Black
TTITLE2=Rehab
TTITLE3=You Know I'm No Good
TTITLE4=Love Is A Loosing Game
TTITLE5=To Know Him Is To Love Him
TTITLE6=Valerie
TTITLE7=Some Unholy War
TTITLE8=Teach Me Tonight
TTITLE9=Don't Got To Strangers
TTITLE10=I Heard It Through The Grapevine
TTITLE11=Mighty Quinn
TTITLE12=Me and Mr. Jones
TTITLE13=He Can Only Hold Her - Doo Wap (That Thing)
TTITLE14=Cherry
TTITLE15=Wake Up Alone
TTITLE16=Tears Dry On Their Own
TTITLE17=Rehab
TTITLE18=Back To Black
TTITLE19=You Know I'm No Good
TTITLE20=Love Is A Loosing Game
TTITLE21=Valerie
TTITLE22=Will You Still Love Me Tomorrow?
EXTD=YEAR: 2007
EXTT0=
EXTT1=
EXTT2=
EXTT3=
EXTT4=
EXTT5=
EXTT6=
EXTT7=
EXTT8=
EXTT9=
EXTT10=
EXTT11=
EXTT12=
EXTT13=
EXTT14=
EXTT15=
EXTT16=
EXTT17=
EXTT18=
EXTT19=
EXTT20=
EXTT21=
EXTT22=
PLAYORDER=
